<svg width="20" height="20" viewBox="0 0 20 20" fill="none" xmlns="http://www.w3.org/2000/svg">
<path d="M20 10C20 11.3889 19.7738 12.6898 19.3214 13.9028C18.869 15.1157 18.2579 16.1713 17.4881 17.0694C16.7183 17.9676 15.8135 18.6806 14.7738 19.2083C13.7341 19.7361 12.619 20 11.4286 20V17.7778C13.2857 17.7778 14.8611 17.0231 16.1548 15.5139C17.4484 14.0046 18.0952 12.1667 18.0952 10C18.0952 7.83333 17.4484 5.99537 16.1548 4.48611C14.8611 2.97685 13.2857 2.22222 11.4286 2.22222C9.57143 2.22222 7.99603 2.97685 6.70238 4.48611C5.40873 5.99537 4.7619 7.83333 4.7619 10V10.1667L6.2381 8.44444L7.61905 10L3.80952 14.4444L0 10L1.38095 8.44444L2.85714 10.1667V10C2.85714 8.61111 3.08333 7.31019 3.53571 6.09722C3.9881 4.88426 4.59921 3.8287 5.36905 2.93056C6.13889 2.03241 7.04365 1.31944 8.08333 0.791667C9.12302 0.263889 10.2381 -1.49012e-07 11.4286 -1.49012e-07C12.619 -1.49012e-07 13.7341 0.263889 14.7738 0.791667C15.8135 1.31944 16.7183 2.03241 17.4881 2.93056C18.2579 3.8287 18.869 4.88426 19.3214 6.09722C19.7738 7.31019 20 8.61111 20 10Z" fill="#0B47A1"/>
</svg>
