<svg width="22" height="21" viewBox="0 0 22 21" fill="none" xmlns="http://www.w3.org/2000/svg">
<path d="M10.4762 21C9.02698 21 7.66508 20.7244 6.39048 20.1731C5.11587 19.6219 4.00714 18.8738 3.06429 17.9288C2.12143 16.9838 1.375 15.8725 0.825 14.595C0.275 13.3175 0 11.9525 0 10.5C0 9.0475 0.275 7.6825 0.825 6.405C1.375 5.1275 2.12143 4.01625 3.06429 3.07125C4.00714 2.12625 5.11587 1.37813 6.39048 0.826875C7.66508 0.275625 9.02698 0 10.4762 0C13.1302 0 15.4306 0.8575 17.3774 2.5725C19.3242 4.2875 20.481 6.4225 20.8476 8.9775C20.4984 8.8025 20.1361 8.66688 19.7607 8.57063C19.3853 8.47438 18.9968 8.4175 18.5952 8.4C18.2635 7.1225 17.6655 5.985 16.8012 4.9875C15.9369 3.99 14.8762 3.2375 13.619 2.73V3.15C13.619 3.7275 13.4139 4.22188 13.0036 4.63313C12.5933 5.04438 12.1 5.25 11.5238 5.25H9.42857V7.35C9.42857 7.6475 9.32817 7.89688 9.12738 8.09813C8.92659 8.29938 8.67778 8.4 8.38095 8.4H6.28571V10.5H12.5714C12.7635 10.5 12.9425 10.5481 13.1083 10.6444C13.2742 10.7406 13.4008 10.8763 13.4881 11.0513C13.1913 11.5238 12.9643 12.0225 12.8071 12.5475C12.65 13.0725 12.5714 13.615 12.5714 14.175C12.5714 15.2775 12.8552 16.3013 13.4226 17.2463C13.9901 18.1913 14.5706 19.075 15.1643 19.8975C14.4484 20.2475 13.6976 20.5188 12.9119 20.7113C12.1262 20.9038 11.3143 21 10.4762 21ZM9.42857 18.8475V16.8C8.85238 16.8 8.35913 16.5944 7.94881 16.1831C7.53849 15.7719 7.33333 15.2775 7.33333 14.7V13.65L2.30476 8.61C2.25238 8.925 2.20437 9.24 2.16071 9.555C2.11706 9.87 2.09524 10.185 2.09524 10.5C2.09524 12.6175 2.78929 14.4725 4.17738 16.065C5.56548 17.6575 7.31587 18.585 9.42857 18.8475ZM18.3333 21C18.2111 21 18.1063 20.965 18.019 20.895C17.9317 20.825 17.8706 20.7375 17.8357 20.6325C17.6436 20.02 17.373 19.4513 17.0238 18.9263C16.6746 18.4013 16.2992 17.885 15.8976 17.3775C15.531 16.9225 15.2341 16.4238 15.0071 15.8813C14.7802 15.3388 14.6667 14.77 14.6667 14.175C14.6667 13.16 15.0246 12.2938 15.7405 11.5763C16.4563 10.8588 17.3206 10.5 18.3333 10.5C19.346 10.5 20.2103 10.8588 20.9262 11.5763C21.6421 12.2938 22 13.16 22 14.175C22 14.77 21.8821 15.3344 21.6464 15.8681C21.4107 16.4019 21.1183 16.905 20.769 17.3775C20.3675 17.885 19.9921 18.4013 19.6429 18.9263C19.2937 19.4513 19.023 20.02 18.831 20.6325C18.796 20.7375 18.7349 20.825 18.6476 20.895C18.5603 20.965 18.4556 21 18.3333 21ZM18.3333 18.0338C18.5079 17.7363 18.7 17.4606 18.9095 17.2069C19.119 16.9531 19.3198 16.695 19.5119 16.4325C19.7563 16.1 19.9702 15.7456 20.1536 15.3694C20.3369 14.9931 20.4286 14.595 20.4286 14.175C20.4286 13.5975 20.2234 13.1031 19.8131 12.6919C19.4028 12.2806 18.9095 12.075 18.3333 12.075C17.7571 12.075 17.2639 12.2806 16.8536 12.6919C16.4433 13.1031 16.2381 13.5975 16.2381 14.175C16.2381 14.595 16.3298 14.9931 16.5131 15.3694C16.6964 15.7456 16.9103 16.1 17.1548 16.4325C17.3643 16.695 17.5694 16.9531 17.7702 17.2069C17.971 17.4606 18.1587 17.7363 18.3333 18.0338ZM18.3333 15.4875C17.9667 15.4875 17.6567 15.3606 17.4036 15.1069C17.1504 14.8531 17.0238 14.5425 17.0238 14.175C17.0238 13.8075 17.1504 13.4969 17.4036 13.2431C17.6567 12.9894 17.9667 12.8625 18.3333 12.8625C18.7 12.8625 19.0099 12.9894 19.2631 13.2431C19.5163 13.4969 19.6429 13.8075 19.6429 14.175C19.6429 14.5425 19.5163 14.8531 19.2631 15.1069C19.0099 15.3606 18.7 15.4875 18.3333 15.4875Z" fill="#F6F6F6"/>
</svg>
