<svg width="159" height="28" viewBox="0 0 159 28" fill="none" xmlns="http://www.w3.org/2000/svg">
<path d="M13.3333 26.6667C11.4889 26.6667 9.75556 26.3167 8.13333 25.6167C6.51111 24.9167 5.1 23.9667 3.9 22.7667C2.7 21.5667 1.75 20.1556 1.05 18.5333C0.35 16.9111 0 15.1778 0 13.3333C0 11.4889 0.35 9.75556 1.05 8.13333C1.75 6.51111 2.7 5.1 3.9 3.9C5.1 2.7 6.51111 1.75 8.13333 1.05C9.75556 0.35 11.4889 0 13.3333 0C16.7111 0 19.6389 1.08889 22.1167 3.26667C24.5944 5.44444 26.0667 8.15556 26.5333 11.4C26.0889 11.1778 25.6278 11.0056 25.15 10.8833C24.6722 10.7611 24.1778 10.6889 23.6667 10.6667C23.2444 9.04444 22.4833 7.6 21.3833 6.33333C20.2833 5.06667 18.9333 4.11111 17.3333 3.46667V4C17.3333 4.73333 17.0722 5.36111 16.55 5.88333C16.0278 6.40556 15.4 6.66667 14.6667 6.66667H12V9.33333C12 9.71111 11.8722 10.0278 11.6167 10.2833C11.3611 10.5389 11.0444 10.6667 10.6667 10.6667H8V13.3333H16C16.2444 13.3333 16.4722 13.3944 16.6833 13.5167C16.8944 13.6389 17.0556 13.8111 17.1667 14.0333C16.7889 14.6333 16.5 15.2667 16.3 15.9333C16.1 16.6 16 17.2889 16 18C16 19.4 16.3611 20.7 17.0833 21.9C17.8056 23.1 18.5444 24.2222 19.3 25.2667C18.3889 25.7111 17.4333 26.0556 16.4333 26.3C15.4333 26.5444 14.4 26.6667 13.3333 26.6667ZM12 23.9333V21.3333C11.2667 21.3333 10.6389 21.0722 10.1167 20.55C9.59444 20.0278 9.33333 19.4 9.33333 18.6667V17.3333L2.93333 10.9333C2.86667 11.3333 2.80556 11.7333 2.75 12.1333C2.69444 12.5333 2.66667 12.9333 2.66667 13.3333C2.66667 16.0222 3.55 18.3778 5.31667 20.4C7.08333 22.4222 9.31111 23.6 12 23.9333ZM23.3333 26.6667C23.1778 26.6667 23.0444 26.6222 22.9333 26.5333C22.8222 26.4444 22.7444 26.3333 22.7 26.2C22.4556 25.4222 22.1111 24.7 21.6667 24.0333C21.2222 23.3667 20.7444 22.7111 20.2333 22.0667C19.7667 21.4889 19.3889 20.8556 19.1 20.1667C18.8111 19.4778 18.6667 18.7556 18.6667 18C18.6667 16.7111 19.1222 15.6111 20.0333 14.7C20.9444 13.7889 22.0444 13.3333 23.3333 13.3333C24.6222 13.3333 25.7222 13.7889 26.6333 14.7C27.5444 15.6111 28 16.7111 28 18C28 18.7556 27.85 19.4722 27.55 20.15C27.25 20.8278 26.8778 21.4667 26.4333 22.0667C25.9222 22.7111 25.4444 23.3667 25 24.0333C24.5556 24.7 24.2111 25.4222 23.9667 26.2C23.9222 26.3333 23.8444 26.4444 23.7333 26.5333C23.6222 26.6222 23.4889 26.6667 23.3333 26.6667ZM23.3333 22.9C23.5556 22.5222 23.8 22.1722 24.0667 21.85C24.3333 21.5278 24.5889 21.2 24.8333 20.8667C25.1444 20.4444 25.4167 19.9944 25.65 19.5167C25.8833 19.0389 26 18.5333 26 18C26 17.2667 25.7389 16.6389 25.2167 16.1167C24.6944 15.5944 24.0667 15.3333 23.3333 15.3333C22.6 15.3333 21.9722 15.5944 21.45 16.1167C20.9278 16.6389 20.6667 17.2667 20.6667 18C20.6667 18.5333 20.7833 19.0389 21.0167 19.5167C21.25 19.9944 21.5222 20.4444 21.8333 20.8667C22.1 21.2 22.3611 21.5278 22.6167 21.85C22.8722 22.1722 23.1111 22.5222 23.3333 22.9ZM23.3333 19.6667C22.8667 19.6667 22.4722 19.5056 22.15 19.1833C21.8278 18.8611 21.6667 18.4667 21.6667 18C21.6667 17.5333 21.8278 17.1389 22.15 16.8167C22.4722 16.4944 22.8667 16.3333 23.3333 16.3333C23.8 16.3333 24.1944 16.4944 24.5167 16.8167C24.8389 17.1389 25 17.5333 25 18C25 18.4667 24.8389 18.8611 24.5167 19.1833C24.1944 19.5056 23.8 19.6667 23.3333 19.6667Z" fill="#F6F6F6"/>
<path d="M46.632 4.336C48.088 4.336 49.32 4.584 50.328 5.08C51.336 5.56 52.104 6.248 52.632 7.144C53.16 8.024 53.424 9.072 53.424 10.288C53.424 11.008 53.312 11.736 53.088 12.472C52.88 13.192 52.536 13.848 52.056 14.44C51.592 15.032 50.96 15.512 50.16 15.88C49.376 16.232 48.408 16.408 47.256 16.408H44.76V22H41.28V4.336H46.632ZM47.232 13.024C47.76 13.024 48.2 12.936 48.552 12.76C48.904 12.568 49.176 12.336 49.368 12.064C49.576 11.776 49.72 11.48 49.8 11.176C49.896 10.872 49.944 10.608 49.944 10.384C49.944 10.208 49.912 9.976 49.848 9.688C49.8 9.384 49.688 9.08 49.512 8.776C49.336 8.472 49.064 8.216 48.696 8.008C48.344 7.8 47.864 7.696 47.256 7.696H44.76V13.024H47.232ZM60.4018 22.288C59.4258 22.288 58.5378 22.096 57.7378 21.712C56.9538 21.312 56.3298 20.704 55.8658 19.888C55.4018 19.072 55.1698 18.032 55.1698 16.768C55.1698 15.584 55.4098 14.56 55.8898 13.696C56.3698 12.832 57.0018 12.168 57.7858 11.704C58.5698 11.224 59.4018 10.984 60.2818 10.984C61.3218 10.984 62.1058 11.16 62.6338 11.512C63.1778 11.848 63.6258 12.224 63.9778 12.64L63.8338 13.048L64.1458 11.512H67.2658V22H63.9058V19.72L64.1698 20.44C64.1378 20.44 64.0418 20.536 63.8818 20.728C63.7218 20.904 63.4818 21.12 63.1618 21.376C62.8578 21.616 62.4738 21.824 62.0098 22C61.5618 22.192 61.0258 22.288 60.4018 22.288ZM61.3618 19.552C61.7618 19.552 62.1218 19.496 62.4418 19.384C62.7618 19.256 63.0418 19.08 63.2818 18.856C63.5218 18.616 63.7298 18.32 63.9058 17.968V15.4C63.7778 15.048 63.5858 14.752 63.3298 14.512C63.0738 14.256 62.7698 14.064 62.4178 13.936C62.0658 13.792 61.6738 13.72 61.2418 13.72C60.7618 13.72 60.3138 13.848 59.8978 14.104C59.4978 14.344 59.1778 14.68 58.9378 15.112C58.6978 15.544 58.5778 16.04 58.5778 16.6C58.5778 17.16 58.7058 17.664 58.9618 18.112C59.2178 18.56 59.5538 18.912 59.9698 19.168C60.4018 19.424 60.8658 19.552 61.3618 19.552ZM74.136 22.216C73.272 22.216 72.464 22.064 71.712 21.76C70.976 21.456 70.352 21.032 69.84 20.488L71.232 18.64C71.744 19.104 72.216 19.44 72.648 19.648C73.096 19.84 73.496 19.936 73.848 19.936C74.12 19.936 74.36 19.912 74.568 19.864C74.792 19.8 74.968 19.712 75.096 19.6C75.224 19.472 75.288 19.312 75.288 19.12C75.288 18.848 75.176 18.632 74.952 18.472C74.744 18.312 74.472 18.184 74.136 18.088C73.8 17.976 73.44 17.864 73.056 17.752C72.096 17.448 71.4 17.008 70.968 16.432C70.552 15.84 70.344 15.2 70.344 14.512C70.344 13.984 70.48 13.456 70.752 12.928C71.04 12.384 71.488 11.936 72.096 11.584C72.72 11.216 73.52 11.032 74.496 11.032C75.376 11.032 76.12 11.12 76.728 11.296C77.336 11.472 77.912 11.76 78.456 12.16L77.184 14.128C76.88 13.888 76.536 13.688 76.152 13.528C75.784 13.352 75.44 13.256 75.12 13.24C74.832 13.224 74.584 13.256 74.376 13.336C74.184 13.416 74.032 13.52 73.92 13.648C73.808 13.776 73.752 13.912 73.752 14.056C73.736 14.36 73.848 14.6 74.088 14.776C74.344 14.952 74.664 15.088 75.048 15.184C75.432 15.28 75.808 15.392 76.176 15.52C76.688 15.68 77.128 15.896 77.496 16.168C77.864 16.44 78.144 16.768 78.336 17.152C78.544 17.52 78.648 17.968 78.648 18.496C78.648 19.136 78.48 19.744 78.144 20.32C77.824 20.88 77.328 21.336 76.656 21.688C76 22.04 75.16 22.216 74.136 22.216ZM84.8704 22.216C84.0064 22.216 83.1984 22.064 82.4464 21.76C81.7104 21.456 81.0864 21.032 80.5744 20.488L81.9664 18.64C82.4784 19.104 82.9504 19.44 83.3824 19.648C83.8304 19.84 84.2304 19.936 84.5824 19.936C84.8544 19.936 85.0944 19.912 85.3024 19.864C85.5264 19.8 85.7024 19.712 85.8304 19.6C85.9584 19.472 86.0224 19.312 86.0224 19.12C86.0224 18.848 85.9104 18.632 85.6864 18.472C85.4784 18.312 85.2064 18.184 84.8704 18.088C84.5344 17.976 84.1744 17.864 83.7904 17.752C82.8304 17.448 82.1344 17.008 81.7024 16.432C81.2864 15.84 81.0784 15.2 81.0784 14.512C81.0784 13.984 81.2144 13.456 81.4864 12.928C81.7744 12.384 82.2224 11.936 82.8304 11.584C83.4544 11.216 84.2544 11.032 85.2304 11.032C86.1104 11.032 86.8544 11.12 87.4624 11.296C88.0704 11.472 88.6464 11.76 89.1904 12.16L87.9184 14.128C87.6144 13.888 87.2704 13.688 86.8864 13.528C86.5184 13.352 86.1744 13.256 85.8544 13.24C85.5664 13.224 85.3184 13.256 85.1104 13.336C84.9184 13.416 84.7664 13.52 84.6544 13.648C84.5424 13.776 84.4864 13.912 84.4864 14.056C84.4704 14.36 84.5824 14.6 84.8224 14.776C85.0784 14.952 85.3984 15.088 85.7824 15.184C86.1664 15.28 86.5424 15.392 86.9104 15.52C87.4224 15.68 87.8624 15.896 88.2304 16.168C88.5984 16.44 88.8784 16.768 89.0704 17.152C89.2784 17.52 89.3824 17.968 89.3824 18.496C89.3824 19.136 89.2144 19.744 88.8784 20.32C88.5584 20.88 88.0624 21.336 87.3904 21.688C86.7344 22.04 85.8944 22.216 84.8704 22.216Z" fill="#F6F6F6"/>
<path d="M91.2368 4.456H95.3168L99.0848 15.544L98.5328 15.304L101.821 7.12L103.429 11.896L98.3408 22.816L91.2368 4.456ZM100.093 4.456H103.549L107.893 15.184L107.269 15.088L110.509 4.456H114.253L107.437 22.768L100.093 4.456ZM113.787 16.624C113.787 15.552 114.035 14.592 114.531 13.744C115.043 12.896 115.755 12.232 116.667 11.752C117.579 11.256 118.627 11.008 119.811 11.008C121.011 11.008 122.051 11.256 122.931 11.752C123.811 12.232 124.483 12.896 124.947 13.744C125.427 14.592 125.667 15.552 125.667 16.624C125.667 17.696 125.427 18.664 124.947 19.528C124.483 20.376 123.811 21.048 122.931 21.544C122.051 22.04 120.995 22.288 119.763 22.288C118.611 22.288 117.579 22.064 116.667 21.616C115.771 21.168 115.067 20.52 114.555 19.672C114.043 18.824 113.787 17.808 113.787 16.624ZM117.171 16.648C117.171 17.192 117.283 17.688 117.507 18.136C117.731 18.568 118.035 18.912 118.419 19.168C118.803 19.424 119.235 19.552 119.715 19.552C120.243 19.552 120.699 19.424 121.083 19.168C121.467 18.912 121.763 18.568 121.971 18.136C122.179 17.688 122.283 17.192 122.283 16.648C122.283 16.088 122.179 15.592 121.971 15.16C121.763 14.728 121.467 14.384 121.083 14.128C120.699 13.872 120.243 13.744 119.715 13.744C119.235 13.744 118.803 13.872 118.419 14.128C118.035 14.384 117.731 14.728 117.507 15.16C117.283 15.592 117.171 16.088 117.171 16.648ZM131.338 11.512L131.65 14.392L131.578 13.96C131.882 13.336 132.298 12.808 132.826 12.376C133.354 11.928 133.874 11.584 134.386 11.344C134.914 11.104 135.314 10.984 135.586 10.984L135.418 14.344C134.634 14.248 133.962 14.376 133.402 14.728C132.842 15.08 132.41 15.544 132.106 16.12C131.802 16.696 131.65 17.288 131.65 17.896V22H128.314V11.512H131.338ZM138.158 3.064H141.518V22H138.158V3.064ZM149.25 22.288C148.274 22.288 147.402 22.064 146.634 21.616C145.866 21.152 145.258 20.488 144.81 19.624C144.378 18.76 144.162 17.736 144.162 16.552C144.162 15.368 144.402 14.36 144.882 13.528C145.362 12.696 146.018 12.064 146.85 11.632C147.682 11.2 148.626 10.984 149.682 10.984C150.354 10.984 150.994 11.088 151.602 11.296C152.226 11.504 152.746 11.824 153.162 12.256V13.312V3.064H156.498V22H153.138V19.96L153.402 20.68C152.858 21.128 152.25 21.512 151.578 21.832C150.906 22.136 150.13 22.288 149.25 22.288ZM150.354 19.456C150.802 19.456 151.194 19.4 151.53 19.288C151.882 19.16 152.186 18.984 152.442 18.76C152.714 18.52 152.946 18.224 153.138 17.872V15.304C153.01 14.952 152.81 14.656 152.538 14.416C152.282 14.16 151.962 13.968 151.578 13.84C151.21 13.696 150.802 13.624 150.354 13.624C149.858 13.624 149.394 13.752 148.962 14.008C148.546 14.248 148.21 14.584 147.954 15.016C147.698 15.448 147.57 15.944 147.57 16.504C147.57 17.064 147.698 17.568 147.954 18.016C148.21 18.464 148.546 18.816 148.962 19.072C149.394 19.328 149.858 19.456 150.354 19.456Z" fill="#F6F6F6"/>
</svg>
