<svg width="28" height="27" viewBox="0 0 28 27" fill="none" xmlns="http://www.w3.org/2000/svg">
<path d="M13.3333 26.6667C11.4889 26.6667 9.75556 26.3167 8.13333 25.6167C6.51111 24.9167 5.1 23.9667 3.9 22.7667C2.7 21.5667 1.75 20.1556 1.05 18.5333C0.35 16.9111 0 15.1778 0 13.3333C0 11.4889 0.35 9.75556 1.05 8.13333C1.75 6.51111 2.7 5.1 3.9 3.9C5.1 2.7 6.51111 1.75 8.13333 1.05C9.75556 0.35 11.4889 0 13.3333 0C16.7111 0 19.6389 1.08889 22.1167 3.26667C24.5944 5.44444 26.0667 8.15556 26.5333 11.4C26.0889 11.1778 25.6278 11.0056 25.15 10.8833C24.6722 10.7611 24.1778 10.6889 23.6667 10.6667C23.2444 9.04444 22.4833 7.6 21.3833 6.33333C20.2833 5.06667 18.9333 4.11111 17.3333 3.46667V4C17.3333 4.73333 17.0722 5.36111 16.55 5.88333C16.0278 6.40556 15.4 6.66667 14.6667 6.66667H12V9.33333C12 9.71111 11.8722 10.0278 11.6167 10.2833C11.3611 10.5389 11.0444 10.6667 10.6667 10.6667H8V13.3333H16C16.2444 13.3333 16.4722 13.3944 16.6833 13.5167C16.8944 13.6389 17.0556 13.8111 17.1667 14.0333C16.7889 14.6333 16.5 15.2667 16.3 15.9333C16.1 16.6 16 17.2889 16 18C16 19.4 16.3611 20.7 17.0833 21.9C17.8056 23.1 18.5444 24.2222 19.3 25.2667C18.3889 25.7111 17.4333 26.0556 16.4333 26.3C15.4333 26.5444 14.4 26.6667 13.3333 26.6667ZM12 23.9333V21.3333C11.2667 21.3333 10.6389 21.0722 10.1167 20.55C9.59444 20.0278 9.33333 19.4 9.33333 18.6667V17.3333L2.93333 10.9333C2.86667 11.3333 2.80556 11.7333 2.75 12.1333C2.69444 12.5333 2.66667 12.9333 2.66667 13.3333C2.66667 16.0222 3.55 18.3778 5.31667 20.4C7.08333 22.4222 9.31111 23.6 12 23.9333ZM23.3333 26.6667C23.1778 26.6667 23.0444 26.6222 22.9333 26.5333C22.8222 26.4444 22.7444 26.3333 22.7 26.2C22.4556 25.4222 22.1111 24.7 21.6667 24.0333C21.2222 23.3667 20.7444 22.7111 20.2333 22.0667C19.7667 21.4889 19.3889 20.8556 19.1 20.1667C18.8111 19.4778 18.6667 18.7556 18.6667 18C18.6667 16.7111 19.1222 15.6111 20.0333 14.7C20.9444 13.7889 22.0444 13.3333 23.3333 13.3333C24.6222 13.3333 25.7222 13.7889 26.6333 14.7C27.5444 15.6111 28 16.7111 28 18C28 18.7556 27.85 19.4722 27.55 20.15C27.25 20.8278 26.8778 21.4667 26.4333 22.0667C25.9222 22.7111 25.4444 23.3667 25 24.0333C24.5556 24.7 24.2111 25.4222 23.9667 26.2C23.9222 26.3333 23.8444 26.4444 23.7333 26.5333C23.6222 26.6222 23.4889 26.6667 23.3333 26.6667ZM23.3333 22.9C23.5556 22.5222 23.8 22.1722 24.0667 21.85C24.3333 21.5278 24.5889 21.2 24.8333 20.8667C25.1444 20.4444 25.4167 19.9944 25.65 19.5167C25.8833 19.0389 26 18.5333 26 18C26 17.2667 25.7389 16.6389 25.2167 16.1167C24.6944 15.5944 24.0667 15.3333 23.3333 15.3333C22.6 15.3333 21.9722 15.5944 21.45 16.1167C20.9278 16.6389 20.6667 17.2667 20.6667 18C20.6667 18.5333 20.7833 19.0389 21.0167 19.5167C21.25 19.9944 21.5222 20.4444 21.8333 20.8667C22.1 21.2 22.3611 21.5278 22.6167 21.85C22.8722 22.1722 23.1111 22.5222 23.3333 22.9ZM23.3333 19.6667C22.8667 19.6667 22.4722 19.5056 22.15 19.1833C21.8278 18.8611 21.6667 18.4667 21.6667 18C21.6667 17.5333 21.8278 17.1389 22.15 16.8167C22.4722 16.4944 22.8667 16.3333 23.3333 16.3333C23.8 16.3333 24.1944 16.4944 24.5167 16.8167C24.8389 17.1389 25 17.5333 25 18C25 18.4667 24.8389 18.8611 24.5167 19.1833C24.1944 19.5056 23.8 19.6667 23.3333 19.6667Z" fill="#F6F6F6"/>
</svg>
